<svg id="svg" version="1.1" viewBox="0 0 300 188.8888888888889" width="300" height="188.8888888888889" xmlns="http://www.w3.org/2000/svg"><svg xmlns="http://www.w3.org/2000/svg"><defs><clipPath id="clip-1"><rect x="0" y="0" transform="scale(0.14648,0.14654)" width="2048" height="1289" fill="none"/></clipPath></defs><g clip-path="url(#clip-1)" fill="none" fill-rule="nonzero" stroke="none" stroke-width="1" stroke-linecap="butt" stroke-linejoin="miter" stroke-miterlimit="10" stroke-dasharray="" stroke-dashoffset="0" font-family="none" font-weight="none" font-size="none" text-anchor="none" style="mix-blend-mode: normal"><path d="M220.80615,31.26924c1.27295,0.80113 3.14795,2.39899 4.40039,3.3978l7.81934,6.22249l26.60449,21.09782c-1.88086,1.19078 -3.79687,2.38199 -5.7085,3.52427c-15.15527,9.057 -30.01318,18.81415 -45.23291,27.74747c0.94336,-4.97368 1.93213,-9.93857 2.96777,-14.89394l-59.73193,-0.01436c-2.98682,-0.01553 -5.32031,-0.05847 -7.60796,2.24762c-1.44478,1.42949 -2.24927,3.38344 -2.23008,5.41623c-0.00542,3.03365 1.83457,5.76543 4.64663,6.89965c2.18555,0.85784 7.13525,0.57517 9.71631,0.56828l12.68262,-0.01641c3.88623,0.00234 7.77979,-0.13189 11.61768,0.57282c7.54395,1.38142 14.48438,5.03538 19.89404,10.47271c7.39307,7.31992 11.2749,18.07545 11.31445,28.38565c0.08936,10.37204 -3.97705,20.34739 -11.29102,27.69926c-7.24658,7.3841 -17.14893,11.55607 -27.49219,11.58392l-37.77495,-0.00147c0.76567,-4.24377 3.39155,-9.6452 7.43599,-11.5209c2.61006,-1.21188 7.81846,-0.82795 10.82578,-0.82502l17.42578,0.00879c6.14941,-0.0337 10.27441,-0.75175 15.65186,-4.02543c8.15771,-4.96621 12.97852,-13.91184 12.89063,-23.46076c-0.10547,-5.50225 -1.77246,-10.86118 -4.80762,-15.45094c-3.94775,-5.97528 -10.29346,-9.94326 -17.39209,-10.87613c-2.66895,-0.33382 -6.60059,-0.21014 -9.36475,-0.2075l-13.76807,0.01539c-4.39453,0.00454 -7.81348,0.22464 -12.00923,-1.32457c-7.75781,-2.86455 -12.38452,-9.73987 -12.4251,-18.05406c-0.08174,-5.56687 2.07187,-10.93401 5.97847,-14.89936c5.73618,-5.7543 11.66924,-5.47558 19.13848,-5.47104l12.60205,0.0126l46.18213,-0.00645c0.56982,-2.24395 1.14111,-5.29578 1.57031,-7.59644c-6.09961,-0.15914 -12.66064,-0.03312 -18.81006,-0.05217c1.34619,-1.85577 2.65283,-3.66216 3.91992,-5.57464c0.9126,-1.37879 2.21924,-4.2489 3.30762,-5.31263c0.53613,-0.52871 1.21436,-0.89154 1.95264,-1.04526c1.38281,-0.29865 10.12939,-0.13276 12.11133,-0.11679c0.74268,-4.77366 1.96582,-10.34947 2.98975,-15.1265z" fill="#1eb1a5"/><path d="M73.68735,46.48777c3.94351,-0.24912 9.7749,-0.06096 13.89551,-0.05906l26.03687,0.00015l82.59902,0.00718c-0.00293,0.074 -0.00586,0.148 -0.01025,0.22186c-0.30762,5.20565 -3.98291,10.11852 -9.02197,11.48603c-2.72607,0.73929 -7.35205,0.48534 -10.35352,0.48138l-17.354,0.00132c-10.59668,0.00381 -19.06831,-0.9166 -27.79556,6.74607c-5.36104,4.70713 -8.81543,12.46549 -9.20918,19.5574c-0.35684,7.22262 2.15493,14.29372 6.98774,19.67141c6.21563,6.9099 14.44863,8.71321 23.23037,8.45223c4.38135,-0.13027 9.76758,-0.17497 14.11523,0.05949c-1.38428,4.82758 -5.08301,10.70248 -10.25098,11.89311c-2.31299,0.53282 -6.19922,0.34744 -8.67627,0.34715l-12.12598,-0.00542l-45.59048,0.01231c-2.67598,0.01363 -6.45557,0.51215 -8.30991,-1.43491c-1.05322,-1.10608 -1.59917,-1.97168 -1.61646,-3.51972c-0.01406,-1.44869 0.55444,-2.84227 1.57749,-3.86761c1.90723,-1.89475 4.95981,-1.48517 7.47876,-1.48752l7.43335,-0.00117l25.79238,0.0041c-4.22871,-4.26956 -5.91621,-6.42691 -8.55249,-11.73632l-36.36431,-0.00205l-10.87207,0.01846c-2.75962,0.00659 -7.13218,0.54322 -9.17432,-1.44634c-0.99258,-0.97361 -1.55728,-2.30242 -1.56929,-3.69308c-0.00103,-1.38992 0.5521,-2.72284 1.53691,-3.70319c1.99116,-1.96274 6.0791,-1.44517 8.7627,-1.44678l10.34517,-0.00088l34.26533,0.00029c-0.89941,-4.01063 -0.68584,-8.52271 -0.27085,-12.57994c-9.09697,-0.10756 -18.21724,0.05949 -27.31626,-0.00791c-2.48672,-0.01846 -5.36807,0.42203 -7.28848,-1.42289c-0.95918,-0.92437 -1.51084,-2.19281 -1.53296,-3.525c-0.05435,-2.47563 1.85435,-4.9942 4.26182,-5.17913c3.48296,-0.26758 7.40303,-0.10522 10.89932,-0.10228l23.74966,-0.00572c2.20796,-5.20653 5.57344,-9.84098 9.84053,-13.55106c-11.33159,-0.22919 -23.43882,-0.01246 -34.8293,-0.01275l-9.08262,0.00381c-2.01284,0.00103 -6.01099,0.28062 -7.64883,-0.7179c-1.15898,-0.71467 -1.97593,-1.87204 -2.26128,-3.20378c-0.70898,-3.15543 1.20454,-5.61259 4.26943,-6.25136z" fill="#1185f4"/><path d="M174.75,113.02589c4.37402,0.25864 8.50488,2.1024 11.62061,5.1866c3.82617,3.8106 5.83008,9.22889 5.83447,14.58885c0.04102,5.2565 -2.01709,10.31196 -5.71729,14.04401c-5.7041,5.70184 -11.30566,5.52745 -18.77051,5.52892l-9.78662,-0.00147l-31.14844,0.00586c-1.30781,0.02198 -4.31338,0.18464 -5.16987,-0.54366c-3.32388,-2.81941 2.34038,-10.85093 5.67686,-11.33011c4.30078,-0.61781 9.31201,-0.36635 13.71167,-0.36693l24.13389,-0.00132c2.31299,0.00073 6.65625,0.28253 8.80078,-0.1801c8.00977,-1.72872 7.46777,-14.1929 -1.01221,-14.66856c-1.00488,-0.05642 -4.23633,0.36503 -4.5249,-0.78003c-0.0542,-1.5879 0.97559,-3.38872 1.53516,-4.8503c1.19531,-2.42464 1.80908,-6.08284 4.81641,-6.63177z" fill="#1eb1a5"/><path d="M110.80151,159.90639c2.45698,-0.17145 19.34927,-0.36635 20.47617,0.21541c0.58594,0.30187 1.02495,0.73563 1.20205,1.38333c0.53291,1.95483 -0.81313,4.8226 -1.82402,6.49168c-1.28657,2.12335 -3.4875,3.44513 -5.84971,4.01077c-2.2771,0.29894 -6.4043,0.11137 -8.86714,0.16266c-2.83696,-0.1187 -5.84385,0.2242 -8.6584,-0.08939c-4.88013,-0.54219 -5.11143,-4.53832 -2.83242,-7.91458c1.46294,-2.21274 3.75132,-3.747 6.35347,-4.25989z" fill="#1eb1a5"/><path d="M99.61802,140.2955c1.50923,-0.11474 3.89326,-0.02242 5.47969,-0.04176c2.13735,0.07459 4.38149,-0.17511 6.49702,0.14346c4.77715,0.71921 4.85566,5.93469 2.35239,9.09026c-1.52842,1.92699 -3.03604,2.56736 -5.36646,2.87803c-2.03628,0.01905 -10.52725,0.18317 -12.04541,-0.12895c-0.83774,-0.17585 -1.62202,-0.54806 -2.28911,-1.08439c-4.32715,-3.49056 -0.08848,-10.43007 5.37187,-10.85664z" fill="#1185f4"/><path d="M80.4728,160.2361c2.12695,-0.12309 4.91338,0.01172 7.08882,-0.04543c1.19355,-0.03077 4.84395,-0.06594 5.90918,0.13189c0.68467,0.12456 1.33096,0.40738 1.88833,0.82355c2.57344,1.89182 1.71665,6.02129 -0.02036,8.18714c-1.45854,1.81855 -2.94814,2.54538 -5.21455,2.82088c-1.87163,0.08353 -10.58247,0.18757 -12.07456,-0.09232c-0.83906,-0.15387 -1.63242,-0.49677 -2.32075,-1.00086c-4.45225,-3.30885 -0.61318,-10.16395 4.7439,-10.82484z" fill="#1185f4"/><path d="M57.60396,70.24132c2.41772,-0.13833 7.34941,-0.39932 9.27642,0.86678c1.11123,0.72581 1.88188,1.87013 2.13691,3.17301c0.28506,1.34977 0.01553,2.75757 -0.74824,3.90644c-0.92783,1.39784 -2.04272,1.93226 -3.62388,2.24102c-2.49565,0.03151 -7.02217,0.4257 -8.98418,-0.69635c-1.1354,-0.64492 -1.96538,-1.71773 -2.30479,-2.97885c-0.37456,-1.34464 -0.18164,-2.78395 0.53379,-3.9822c0.8978,-1.50657 2.08521,-2.1084 3.71396,-2.52985z" fill="#1185f4"/><path d="M63.8436,115.10514c2.42725,-0.15035 6.90439,-0.44094 8.86729,0.92745c1.09834,0.76479 1.84438,1.93842 2.0707,3.258c0.25254,1.37102 -0.06387,2.78571 -0.87642,3.91846c-0.92373,1.27211 -2.04814,1.83276 -3.55884,2.07324c-1.94546,0.08675 -4.07666,0.13438 -6.01729,0.04294c-6.16787,-0.29059 -6.65479,-9.22317 -0.48545,-10.22008z" fill="#1185f4"/><path d="M44.54736,93.15534c2.7832,-0.54469 5.48042,1.27211 6.02285,4.05664c0.54229,2.78454 -1.27559,5.48144 -4.05952,6.02202c-2.78115,0.54 -5.47354,-1.27636 -6.01538,-4.05811c-0.54185,-2.78161 1.27192,-5.47646 4.05205,-6.02056z" fill="#1185f4"/></g></svg></svg>